<svg width="4000" height="4000" viewBox="0 0 4000 4000" fill="none" xmlns="http://www.w3.org/2000/svg">
<g clip-path="url(#clip0_1884_19)">
<path d="M4000 0H0V4000H4000V0Z" fill="black"/>
<path d="M2717.91 799.374C2527.51 689.453 2303.28 635 2067.97 635C1314.14 635 703 1246.12 703 1999.97C703 2139.65 723.994 2274.43 762.961 2401.33C1009.64 2047.7 1419.44 1816.32 1883.29 1816.32C2031.45 1816.32 2174.11 1839.95 2307.67 1883.59C3044.24 2124.22 3473.74 1235.74 2717.91 799.374Z" fill="url(#paint0_linear_1884_19)"/>
<path d="M762.963 2401.33C1009.64 2047.7 1419.44 1816.32 1883.29 1816.32C2031.45 1816.32 2174.11 1839.95 2307.67 1883.59C2512.53 1950.51 2693.55 1930.01 2832 1856.3C2802.12 1780.44 2753.84 1702.84 2683.61 1626.57C2561.57 1494.04 2399.52 1396.62 2215.52 1339.08C1625.95 1154.73 998.582 1483.23 814.228 2072.79C780.065 2182.01 763.522 2292.55 762.963 2401.33Z" fill="#4D4D4D"/>
<path d="M2034.58 2399.49C1902.4 2303.98 1872.69 2119.4 1968.22 1987.22C2038.16 1890.45 2155.85 1848.6 2265.75 1870.63C2144.4 1835.29 2016.07 1816.32 1883.29 1816.32C1419.44 1816.32 1009.64 2047.7 762.963 2401.33C934.377 2959.32 1453.81 3364.95 2067.98 3364.95C2508.14 3364.95 2899.6 3156.6 3149.23 2833.19C3636.08 2202.44 2798.81 1723.53 2446.85 2333.15C2351.32 2465.31 2166.74 2495.02 2034.58 2399.49Z" fill="url(#paint1_linear_1884_19)"/>
<path d="M1737.61 2700.56C2117.81 2835.38 2787.02 2998.56 3238.07 2692.23C3511.35 2135.88 2772.03 1769.92 2446.84 2333.15C2423.22 2365.85 2394.11 2392.26 2361.73 2412.08C2362.25 2411.77 2362.76 2411.46 2363.28 2411.13C2188.93 2559.91 1974.1 2662.67 1737.61 2700.56Z" fill="white"/>
<path d="M1883.29 1816.32C1419.44 1816.32 1009.64 2047.7 762.963 2401.33C770.851 2427.03 779.485 2452.39 788.844 2477.42C998.602 2628.03 1255.82 2716.71 1533.76 2716.71C1850.31 2716.71 2140.01 2601.67 2363.29 2411.13C2264.57 2472.35 2134.56 2471.77 2034.58 2399.49C1902.4 2303.98 1872.69 2119.4 1968.22 1987.22C2038.16 1890.45 2155.85 1848.6 2265.75 1870.63C2144.4 1835.29 2016.07 1816.32 1883.29 1816.32Z" fill="url(#paint2_linear_1884_19)"/>
<path d="M1883.29 1816.32C1773.58 1816.32 1666.88 1829.28 1564.67 1853.74C1500.87 2267.11 1590.84 2540.63 1839.42 2679.93C2035.76 2631.78 2214.32 2538.27 2363.29 2411.13C2264.57 2472.35 2134.56 2471.77 2034.58 2399.49C1902.4 2303.98 1872.69 2119.4 1968.22 1987.22C2038.16 1890.45 2155.85 1848.6 2265.75 1870.63C2144.4 1835.29 2016.07 1816.32 1883.29 1816.32Z" fill="white"/>
<path d="M788.844 2477.42C887.584 2548.32 996.863 2605.5 1113.87 2646.17C1298.7 2258.89 1656.51 1979.66 2077.52 1895C2135.66 1866.55 2202.02 1857.86 2265.75 1870.63C2144.4 1835.29 2016.07 1816.32 1883.29 1816.32C1419.44 1816.32 1009.64 2047.7 762.963 2401.33C770.851 2427.03 779.485 2452.39 788.844 2477.42Z" fill="#4D4D4D"/>
<path d="M3055.79 2312.3C2891.83 2665.09 2571.99 2940.77 2163.19 3033.18C1619.04 3156.18 1077.44 2918.25 788.842 2477.42C982.409 2995.8 1482.1 3364.95 2067.97 3364.95C2508.13 3364.95 2899.6 3156.6 3149.23 2833.19C3390.67 2520.41 3306.46 2244.95 3117.31 2121.08C3107.29 2180.39 3087.39 2244.31 3055.79 2312.3Z" fill="#4D4D4D"/>
<path d="M2717.91 799.374C2527.51 689.453 2303.28 635 2067.97 635C1546.18 635 1092.83 927.846 863.129 1358.11C1402.38 1097.11 2432.44 1234.11 2500.8 1922.35C3112.67 1965.85 3404.81 1195.95 2717.91 799.374Z" fill="white"/>
</g>
<defs>
<linearGradient id="paint0_linear_1884_19" x1="881.239" y1="2748.38" x2="3096.45" y2="144.044" gradientUnits="userSpaceOnUse">
<stop stop-color="#333333"/>
<stop offset="1" stop-color="white"/>
</linearGradient>
<linearGradient id="paint1_linear_1884_19" x1="1379.29" y1="3533.59" x2="2687.14" y2="1464.62" gradientUnits="userSpaceOnUse">
<stop stop-color="#333333"/>
<stop offset="1" stop-color="white"/>
</linearGradient>
<linearGradient id="paint2_linear_1884_19" x1="1345.81" y1="1843.22" x2="2110.31" y2="3236.69" gradientUnits="userSpaceOnUse">
<stop stop-color="#333333"/>
<stop offset="1" stop-color="#FEFEFE"/>
</linearGradient>
<clipPath id="clip0_1884_19">
<rect width="4000" height="4000" fill="white"/>
</clipPath>
</defs>
</svg>
